<?xml version="1.0" standalone="no"?><!DOCTYPE svg PUBLIC "-//W3C//DTD SVG 1.1//EN" "http://www.w3.org/Graphics/SVG/1.1/DTD/svg11.dtd"><svg t="1762496430170" class="icon" viewBox="0 0 1024 1024" version="1.1" xmlns="http://www.w3.org/2000/svg" p-id="2089" xmlns:xlink="http://www.w3.org/1999/xlink" width="200" height="200"><path d="M568.887 1023.99H341.333V910.211h227.554v113.779z m113.779 0H568.888V910.211h113.778v113.779zM341.333 910.218H227.555V796.44h113.778v113.778zM910.22 796.447H796.445v113.771H682.667V796.44h113.776V682.67H910.22v113.777z m-682.666 0H113.776V682.67h113.778v113.777z m0-341.34v227.548H113.776V455.107h113.778z m568.891 0H910.22v227.548H796.443V455.114H682.667V341.336h113.778v113.771z m-455.112 0.007H227.555V341.336h113.778v113.778z m0-113.792H227.555V227.545h113.778v113.777z m455.112 0H682.667V227.545h113.778v113.777z m-227.558-113.77H341.333V113.773h227.554v113.779z m113.779 0H568.888V113.773h113.778v113.779z" fill="#00AF3E" p-id="2090"></path><path d="M568.887 682.664v113.777H341.333V682.664h227.554z m113.779 113.777H568.888V682.664h113.778v113.777z m0-113.792H568.888V455.102h113.778v227.547z" fill="#9C5F00" p-id="2091"></path><path d="M568.887 682.649H341.333V455.102h227.554v227.547z" fill="#D38100" p-id="2092"></path><path d="M568.887 341.316H341.333V227.539h227.554v113.777z m113.779-113.777v113.777H568.888V227.539h113.778z" fill="#CDFF42" p-id="2093"></path><path d="M568.887 910.218H341.333V796.44h227.554v113.778zM682.666 796.44v113.778H568.888V796.44h113.778z m-341.333 0.007H227.555V682.67h113.778v113.777z m455.112 0H682.667V682.67h113.778v113.777zM341.333 682.655H227.555V455.107h113.778v227.548z m455.112 0H682.667V455.107h113.778v227.548zM568.887 455.114H341.333V341.336h227.554v113.778z m113.779 0H568.888V341.336h113.778v113.778z" fill="#FFF8A9" p-id="2094"></path></svg>